<svg xmlns="http://www.w3.org/2000/svg" version="1.1" xmlns:xlink="http://www.w3.org/1999/xlink" xmlns:svgjs="http://svgjs.com/svgjs" width="1920" height="1080" preserveAspectRatio="none" viewBox="0 0 1920 1080"><g mask="url(&quot;#SvgjsMask1685&quot;)" fill="none"><rect width="1920" height="1080" x="0" y="0" fill="#0e2a47"></rect><g mask="url(&quot;#SvgjsMask1686&quot;)"><path d="M52.5 535.5L73.5 535.5L94.5 535.5L115.5 535.5M136.5 556.5L157.5 535.5L178.5 535.5L199.5 535.5L220.5 535.5M262.5 556.5L283.5 535.5L304.5 535.5L325.5 535.5L346.5 556.5L367.5 556.5L388.5 556.5M241.5 556.5L262.5 535.5L283.5 514.5L304.5 514.5M-10.5 535.5L10.5 535.5L31.5 535.5L52.5 535.5L73.5 556.5L94.5 556.5L115.5 556.5L136.5 556.5L157.5 556.5L178.5 556.5L199.5 556.5L220.5 556.5L241.5 556.5L262.5 556.5L283.5 556.5L304.5 556.5L325.5 556.5" stroke="rgba(251, 22, 191, 1)" stroke-width="3.5"></path><path d="M320.25 556.5 a5.25 5.25 0 1 0 10.5 0 a5.25 5.25 0 1 0 -10.5 0zM110.25 535.5 a5.25 5.25 0 1 0 10.5 0 a5.25 5.25 0 1 0 -10.5 0zM215.25 535.5 a5.25 5.25 0 1 0 10.5 0 a5.25 5.25 0 1 0 -10.5 0zM383.25 556.5 a5.25 5.25 0 1 0 10.5 0 a5.25 5.25 0 1 0 -10.5 0zM299.25 514.5 a5.25 5.25 0 1 0 10.5 0 a5.25 5.25 0 1 0 -10.5 0z" fill="rgba(251, 22, 191, 1)"></path><path d="M220.5 598.5L241.5 619.5L262.5 619.5L283.5 619.5L304.5 619.5M178.5 598.5L199.5 577.5L220.5 577.5M136.5 577.5L157.5 598.5L178.5 619.5L199.5 619.5M-10.5 556.5L10.5 556.5L31.5 556.5L52.5 556.5L73.5 577.5L94.5 577.5L115.5 577.5L136.5 577.5L157.5 577.5L178.5 598.5L199.5 598.5L220.5 598.5L241.5 598.5" stroke="rgba(251, 22, 191, 1)" stroke-width="3.5"></path><path d="M236.25 598.5 a5.25 5.25 0 1 0 10.5 0 a5.25 5.25 0 1 0 -10.5 0zM299.25 619.5 a5.25 5.25 0 1 0 10.5 0 a5.25 5.25 0 1 0 -10.5 0zM215.25 577.5 a5.25 5.25 0 1 0 10.5 0 a5.25 5.25 0 1 0 -10.5 0zM194.25 619.5 a5.25 5.25 0 1 0 10.5 0 a5.25 5.25 0 1 0 -10.5 0z" fill="rgba(251, 22, 191, 1)"></path><path d="M388.5 493.5L409.5 514.5L430.5 514.5M94.5 493.5L115.5 514.5L136.5 514.5L157.5 514.5L178.5 514.5M346.5 493.5L367.5 514.5L388.5 514.5L409.5 535.5L430.5 535.5M31.5 514.5L52.5 514.5L73.5 514.5L94.5 514.5M157.5 493.5L178.5 472.5L199.5 472.5M-10.5 514.5L10.5 514.5L31.5 514.5L52.5 493.5L73.5 493.5L94.5 493.5L115.5 493.5L136.5 493.5L157.5 493.5L178.5 493.5L199.5 493.5L220.5 493.5L241.5 493.5L262.5 493.5L283.5 493.5L304.5 493.5L325.5 493.5L346.5 493.5L367.5 493.5L388.5 493.5L409.5 493.5" stroke="rgba(86, 156, 251, 1)" stroke-width="3.5"></path><path d="M404.25 493.5 a5.25 5.25 0 1 0 10.5 0 a5.25 5.25 0 1 0 -10.5 0zM425.25 514.5 a5.25 5.25 0 1 0 10.5 0 a5.25 5.25 0 1 0 -10.5 0zM173.25 514.5 a5.25 5.25 0 1 0 10.5 0 a5.25 5.25 0 1 0 -10.5 0zM425.25 535.5 a5.25 5.25 0 1 0 10.5 0 a5.25 5.25 0 1 0 -10.5 0zM89.25 514.5 a5.25 5.25 0 1 0 10.5 0 a5.25 5.25 0 1 0 -10.5 0zM194.25 472.5 a5.25 5.25 0 1 0 10.5 0 a5.25 5.25 0 1 0 -10.5 0z" fill="rgba(86, 156, 251, 1)"></path><path d="M115.5 598.5L136.5 598.5M-10.5 577.5L10.5 577.5L31.5 577.5L52.5 577.5L73.5 598.5L94.5 598.5L115.5 598.5L136.5 619.5" stroke="rgba(86, 156, 251, 1)" stroke-width="3.5"></path><path d="M131.25 619.5 a5.25 5.25 0 1 0 10.5 0 a5.25 5.25 0 1 0 -10.5 0zM131.25 598.5 a5.25 5.25 0 1 0 10.5 0 a5.25 5.25 0 1 0 -10.5 0z" fill="rgba(86, 156, 251, 1)"></path><path d="M-10.5 493.5L10.5 493.5L31.5 493.5L52.5 472.5L73.5 472.5L94.5 472.5" stroke="rgba(86, 156, 251, 1)" stroke-width="3.5"></path><path d="M89.25 472.5 a5.25 5.25 0 1 0 10.5 0 a5.25 5.25 0 1 0 -10.5 0z" fill="rgba(86, 156, 251, 1)"></path><path d="M325.5 661.5L346.5 682.5L367.5 682.5L388.5 682.5L409.5 682.5L430.5 682.5M304.5 640.5L325.5 640.5L346.5 640.5M-10.5 598.5L10.5 598.5L31.5 598.5L52.5 598.5L73.5 619.5L94.5 619.5L115.5 619.5L136.5 640.5L157.5 640.5L178.5 640.5L199.5 640.5L220.5 640.5L241.5 640.5L262.5 640.5L283.5 640.5L304.5 640.5L325.5 661.5L346.5 661.5L367.5 661.5" stroke="rgba(86, 156, 251, 1)" stroke-width="3.5"></path><path d="M362.25 661.5 a5.25 5.25 0 1 0 10.5 0 a5.25 5.25 0 1 0 -10.5 0zM425.25 682.5 a5.25 5.25 0 1 0 10.5 0 a5.25 5.25 0 1 0 -10.5 0zM341.25 640.5 a5.25 5.25 0 1 0 10.5 0 a5.25 5.25 0 1 0 -10.5 0z" fill="rgba(86, 156, 251, 1)"></path><path d="M136.5 451.5L157.5 472.5M241.5 472.5L262.5 451.5L283.5 451.5L304.5 451.5M220.5 472.5L241.5 451.5M-10.5 472.5L10.5 472.5L31.5 472.5L52.5 451.5L73.5 451.5L94.5 451.5L115.5 451.5L136.5 451.5L157.5 451.5L178.5 451.5L199.5 451.5L220.5 472.5L241.5 472.5L262.5 472.5" stroke="rgba(86, 156, 251, 1)" stroke-width="3.5"></path><path d="M257.25 472.5 a5.25 5.25 0 1 0 10.5 0 a5.25 5.25 0 1 0 -10.5 0zM152.25 472.5 a5.25 5.25 0 1 0 10.5 0 a5.25 5.25 0 1 0 -10.5 0zM299.25 451.5 a5.25 5.25 0 1 0 10.5 0 a5.25 5.25 0 1 0 -10.5 0zM236.25 451.5 a5.25 5.25 0 1 0 10.5 0 a5.25 5.25 0 1 0 -10.5 0z" fill="rgba(86, 156, 251, 1)"></path><path d="M262.5 682.5L283.5 682.5L304.5 682.5L325.5 682.5L346.5 703.5M157.5 661.5L178.5 682.5L199.5 682.5M220.5 682.5L241.5 661.5L262.5 661.5M-10.5 619.5L10.5 619.5L31.5 619.5L52.5 619.5L73.5 640.5L94.5 640.5L115.5 640.5L136.5 661.5L157.5 661.5L178.5 661.5L199.5 661.5L220.5 682.5L241.5 682.5L262.5 682.5L283.5 661.5" stroke="rgba(251, 22, 191, 1)" stroke-width="3.5"></path><path d="M278.25 661.5 a5.25 5.25 0 1 0 10.5 0 a5.25 5.25 0 1 0 -10.5 0zM341.25 703.5 a5.25 5.25 0 1 0 10.5 0 a5.25 5.25 0 1 0 -10.5 0zM194.25 682.5 a5.25 5.25 0 1 0 10.5 0 a5.25 5.25 0 1 0 -10.5 0zM257.25 661.5 a5.25 5.25 0 1 0 10.5 0 a5.25 5.25 0 1 0 -10.5 0z" fill="rgba(251, 22, 191, 1)"></path><path d="M-10.5 451.5L10.5 451.5L31.5 451.5L52.5 430.5L73.5 430.5L94.5 430.5L115.5 430.5" stroke="rgba(86, 156, 251, 1)" stroke-width="3.5"></path><path d="M110.25 430.5 a5.25 5.25 0 1 0 10.5 0 a5.25 5.25 0 1 0 -10.5 0z" fill="rgba(86, 156, 251, 1)"></path><path d="M73.5 661.5L94.5 682.5L115.5 682.5M-10.5 640.5L10.5 640.5L31.5 640.5L52.5 640.5L73.5 661.5L94.5 661.5L115.5 661.5L136.5 682.5" stroke="rgba(251, 22, 191, 1)" stroke-width="3.5"></path><path d="M131.25 682.5 a5.25 5.25 0 1 0 10.5 0 a5.25 5.25 0 1 0 -10.5 0zM110.25 682.5 a5.25 5.25 0 1 0 10.5 0 a5.25 5.25 0 1 0 -10.5 0z" fill="rgba(251, 22, 191, 1)"></path><path d="M136.5 409.5L157.5 409.5L178.5 409.5M-10.5 430.5L10.5 430.5L31.5 430.5L52.5 409.5L73.5 409.5L94.5 409.5L115.5 409.5L136.5 409.5L157.5 430.5L178.5 430.5L199.5 430.5" stroke="rgba(86, 156, 251, 1)" stroke-width="3.5"></path><path d="M194.25 430.5 a5.25 5.25 0 1 0 10.5 0 a5.25 5.25 0 1 0 -10.5 0zM173.25 409.5 a5.25 5.25 0 1 0 10.5 0 a5.25 5.25 0 1 0 -10.5 0z" fill="rgba(86, 156, 251, 1)"></path><path d="M-10.5 661.5L10.5 661.5L31.5 661.5" stroke="rgba(251, 22, 191, 1)" stroke-width="3.5"></path><path d="M26.25 661.5 a5.25 5.25 0 1 0 10.5 0 a5.25 5.25 0 1 0 -10.5 0z" fill="rgba(251, 22, 191, 1)"></path><path d="M115.5 388.5L136.5 388.5L157.5 388.5M-10.5 409.5L10.5 409.5L31.5 409.5L52.5 388.5L73.5 388.5L94.5 388.5L115.5 388.5L136.5 367.5" stroke="rgba(251, 22, 191, 1)" stroke-width="3.5"></path><path d="M131.25 367.5 a5.25 5.25 0 1 0 10.5 0 a5.25 5.25 0 1 0 -10.5 0zM152.25 388.5 a5.25 5.25 0 1 0 10.5 0 a5.25 5.25 0 1 0 -10.5 0z" fill="rgba(251, 22, 191, 1)"></path><path d="M-10.5 682.5L10.5 682.5L31.5 682.5L52.5 682.5" stroke="rgba(86, 156, 251, 1)" stroke-width="3.5"></path><path d="M47.25 682.5 a5.25 5.25 0 1 0 10.5 0 a5.25 5.25 0 1 0 -10.5 0z" fill="rgba(86, 156, 251, 1)"></path><path d="M-10.5 388.5L10.5 388.5L31.5 388.5" stroke="rgba(251, 22, 191, 1)" stroke-width="3.5"></path><path d="M26.25 388.5 a5.25 5.25 0 1 0 10.5 0 a5.25 5.25 0 1 0 -10.5 0z" fill="rgba(251, 22, 191, 1)"></path><path d="M136.5 703.5L157.5 724.5M73.5 703.5L94.5 724.5M115.5 703.5L136.5 724.5M-10.5 703.5L10.5 703.5L31.5 703.5L52.5 703.5L73.5 703.5L94.5 703.5L115.5 703.5L136.5 703.5L157.5 703.5L178.5 703.5" stroke="rgba(251, 22, 191, 1)" stroke-width="3.5"></path><path d="M173.25 703.5 a5.25 5.25 0 1 0 10.5 0 a5.25 5.25 0 1 0 -10.5 0zM152.25 724.5 a5.25 5.25 0 1 0 10.5 0 a5.25 5.25 0 1 0 -10.5 0zM89.25 724.5 a5.25 5.25 0 1 0 10.5 0 a5.25 5.25 0 1 0 -10.5 0zM131.25 724.5 a5.25 5.25 0 1 0 10.5 0 a5.25 5.25 0 1 0 -10.5 0z" fill="rgba(251, 22, 191, 1)"></path><path d="M304.5 346.5L325.5 367.5L346.5 367.5L367.5 367.5M52.5 367.5L73.5 346.5L94.5 346.5M31.5 367.5L52.5 346.5M157.5 346.5L178.5 367.5L199.5 367.5L220.5 367.5L241.5 367.5M-10.5 367.5L10.5 367.5L31.5 367.5L52.5 367.5L73.5 367.5L94.5 367.5L115.5 367.5L136.5 346.5L157.5 346.5L178.5 346.5L199.5 346.5L220.5 346.5L241.5 346.5L262.5 346.5L283.5 346.5L304.5 346.5L325.5 346.5L346.5 346.5" stroke="rgba(251, 22, 191, 1)" stroke-width="3.5"></path><path d="M341.25 346.5 a5.25 5.25 0 1 0 10.5 0 a5.25 5.25 0 1 0 -10.5 0zM362.25 367.5 a5.25 5.25 0 1 0 10.5 0 a5.25 5.25 0 1 0 -10.5 0zM89.25 346.5 a5.25 5.25 0 1 0 10.5 0 a5.25 5.25 0 1 0 -10.5 0zM47.25 346.5 a5.25 5.25 0 1 0 10.5 0 a5.25 5.25 0 1 0 -10.5 0zM236.25 367.5 a5.25 5.25 0 1 0 10.5 0 a5.25 5.25 0 1 0 -10.5 0z" fill="rgba(251, 22, 191, 1)"></path><path d="M199.5 745.5L220.5 724.5L241.5 724.5L262.5 724.5M115.5 745.5L136.5 766.5M178.5 745.5L199.5 766.5M-10.5 724.5L10.5 724.5L31.5 724.5L52.5 724.5L73.5 745.5L94.5 745.5L115.5 745.5L136.5 745.5L157.5 745.5L178.5 745.5L199.5 745.5L220.5 745.5" stroke="rgba(251, 22, 191, 1)" stroke-width="3.5"></path><path d="M215.25 745.5 a5.25 5.25 0 1 0 10.5 0 a5.25 5.25 0 1 0 -10.5 0zM257.25 724.5 a5.25 5.25 0 1 0 10.5 0 a5.25 5.25 0 1 0 -10.5 0zM131.25 766.5 a5.25 5.25 0 1 0 10.5 0 a5.25 5.25 0 1 0 -10.5 0zM194.25 766.5 a5.25 5.25 0 1 0 10.5 0 a5.25 5.25 0 1 0 -10.5 0z" fill="rgba(251, 22, 191, 1)"></path><path d="M-10.5 745.5L10.5 745.5L31.5 745.5" stroke="rgba(251, 22, 191, 1)" stroke-width="3.5"></path><path d="M26.25 745.5 a5.25 5.25 0 1 0 10.5 0 a5.25 5.25 0 1 0 -10.5 0z" fill="rgba(251, 22, 191, 1)"></path><path d="M-10.5 325.5L10.5 325.5L31.5 325.5L52.5 325.5L73.5 325.5L94.5 325.5L115.5 325.5L136.5 325.5L157.5 325.5L178.5 325.5L199.5 325.5" stroke="rgba(251, 22, 191, 1)" stroke-width="3.5"></path><path d="M194.25 325.5 a5.25 5.25 0 1 0 10.5 0 a5.25 5.25 0 1 0 -10.5 0z" fill="rgba(251, 22, 191, 1)"></path><path d="M-10.5 766.5L10.5 766.5L31.5 766.5L52.5 766.5" stroke="rgba(251, 22, 191, 1)" stroke-width="3.5"></path><path d="M47.25 766.5 a5.25 5.25 0 1 0 10.5 0 a5.25 5.25 0 1 0 -10.5 0z" fill="rgba(251, 22, 191, 1)"></path><path d="M-10.5 304.5L10.5 304.5L31.5 304.5L52.5 304.5L73.5 304.5L94.5 304.5L115.5 304.5L136.5 304.5L157.5 304.5L178.5 304.5L199.5 304.5L220.5 304.5L241.5 325.5" stroke="rgba(86, 156, 251, 1)" stroke-width="3.5"></path><path d="M236.25 325.5 a5.25 5.25 0 1 0 10.5 0 a5.25 5.25 0 1 0 -10.5 0z" fill="rgba(86, 156, 251, 1)"></path><path d="M31.5 787.5L52.5 808.5L73.5 808.5L94.5 808.5L115.5 808.5M136.5 787.5L157.5 808.5M94.5 787.5L115.5 766.5M-10.5 787.5L10.5 787.5L31.5 787.5L52.5 787.5L73.5 787.5L94.5 787.5L115.5 787.5L136.5 787.5L157.5 787.5" stroke="rgba(86, 156, 251, 1)" stroke-width="3.5"></path><path d="M152.25 787.5 a5.25 5.25 0 1 0 10.5 0 a5.25 5.25 0 1 0 -10.5 0zM110.25 808.5 a5.25 5.25 0 1 0 10.5 0 a5.25 5.25 0 1 0 -10.5 0zM152.25 808.5 a5.25 5.25 0 1 0 10.5 0 a5.25 5.25 0 1 0 -10.5 0zM110.25 766.5 a5.25 5.25 0 1 0 10.5 0 a5.25 5.25 0 1 0 -10.5 0z" fill="rgba(86, 156, 251, 1)"></path><path d="M10.5 283.5L31.5 262.5M136.5 283.5L157.5 262.5L178.5 262.5L199.5 262.5L220.5 262.5M346.5 325.5L367.5 304.5L388.5 304.5L409.5 325.5M304.5 325.5L325.5 304.5L346.5 304.5L367.5 283.5M262.5 325.5L283.5 304.5L304.5 304.5L325.5 283.5L346.5 262.5L367.5 241.5L388.5 241.5M-10.5 283.5L10.5 283.5L31.5 283.5L52.5 283.5L73.5 283.5L94.5 283.5L115.5 283.5L136.5 283.5L157.5 283.5L178.5 283.5L199.5 283.5L220.5 283.5L241.5 304.5L262.5 325.5L283.5 325.5L304.5 325.5L325.5 325.5L346.5 325.5L367.5 325.5L388.5 325.5" stroke="rgba(251, 22, 191, 1)" stroke-width="3.5"></path><path d="M383.25 325.5 a5.25 5.25 0 1 0 10.5 0 a5.25 5.25 0 1 0 -10.5 0zM26.25 262.5 a5.25 5.25 0 1 0 10.5 0 a5.25 5.25 0 1 0 -10.5 0zM215.25 262.5 a5.25 5.25 0 1 0 10.5 0 a5.25 5.25 0 1 0 -10.5 0zM404.25 325.5 a5.25 5.25 0 1 0 10.5 0 a5.25 5.25 0 1 0 -10.5 0zM362.25 283.5 a5.25 5.25 0 1 0 10.5 0 a5.25 5.25 0 1 0 -10.5 0zM383.25 241.5 a5.25 5.25 0 1 0 10.5 0 a5.25 5.25 0 1 0 -10.5 0z" fill="rgba(251, 22, 191, 1)"></path></g></g><defs><mask id="SvgjsMask1685"><rect width="1920" height="1080" fill="#ffffff"></rect></mask><mask id="SvgjsMask1686"><rect width="1920" height="1080" fill="white"></rect><path d="M322.87 556.5 a2.63 2.63 0 1 0 5.26 0 a2.63 2.63 0 1 0 -5.26 0zM112.87 535.5 a2.63 2.63 0 1 0 5.26 0 a2.63 2.63 0 1 0 -5.26 0zM217.87 535.5 a2.63 2.63 0 1 0 5.26 0 a2.63 2.63 0 1 0 -5.26 0zM385.87 556.5 a2.63 2.63 0 1 0 5.26 0 a2.63 2.63 0 1 0 -5.26 0zM301.87 514.5 a2.63 2.63 0 1 0 5.26 0 a2.63 2.63 0 1 0 -5.26 0z" fill="black"></path><path d="M238.87 598.5 a2.63 2.63 0 1 0 5.26 0 a2.63 2.63 0 1 0 -5.26 0zM301.87 619.5 a2.63 2.63 0 1 0 5.26 0 a2.63 2.63 0 1 0 -5.26 0zM217.87 577.5 a2.63 2.63 0 1 0 5.26 0 a2.63 2.63 0 1 0 -5.26 0zM196.87 619.5 a2.63 2.63 0 1 0 5.26 0 a2.63 2.63 0 1 0 -5.26 0z" fill="black"></path><path d="M406.87 493.5 a2.63 2.63 0 1 0 5.26 0 a2.63 2.63 0 1 0 -5.26 0zM427.87 514.5 a2.63 2.63 0 1 0 5.26 0 a2.63 2.63 0 1 0 -5.26 0zM175.87 514.5 a2.63 2.63 0 1 0 5.26 0 a2.63 2.63 0 1 0 -5.26 0zM427.87 535.5 a2.63 2.63 0 1 0 5.26 0 a2.63 2.63 0 1 0 -5.26 0zM91.87 514.5 a2.63 2.63 0 1 0 5.26 0 a2.63 2.63 0 1 0 -5.26 0zM196.87 472.5 a2.63 2.63 0 1 0 5.26 0 a2.63 2.63 0 1 0 -5.26 0z" fill="black"></path><path d="M133.87 619.5 a2.63 2.63 0 1 0 5.26 0 a2.63 2.63 0 1 0 -5.26 0zM133.87 598.5 a2.63 2.63 0 1 0 5.26 0 a2.63 2.63 0 1 0 -5.26 0z" fill="black"></path><path d="M91.87 472.5 a2.63 2.63 0 1 0 5.26 0 a2.63 2.63 0 1 0 -5.26 0z" fill="black"></path><path d="M364.87 661.5 a2.63 2.63 0 1 0 5.26 0 a2.63 2.63 0 1 0 -5.26 0zM427.87 682.5 a2.63 2.63 0 1 0 5.26 0 a2.63 2.63 0 1 0 -5.26 0zM343.87 640.5 a2.63 2.63 0 1 0 5.26 0 a2.63 2.63 0 1 0 -5.26 0z" fill="black"></path><path d="M259.87 472.5 a2.63 2.63 0 1 0 5.26 0 a2.63 2.63 0 1 0 -5.26 0zM154.87 472.5 a2.63 2.63 0 1 0 5.26 0 a2.63 2.63 0 1 0 -5.26 0zM301.87 451.5 a2.63 2.63 0 1 0 5.26 0 a2.63 2.63 0 1 0 -5.26 0zM238.87 451.5 a2.63 2.63 0 1 0 5.26 0 a2.63 2.63 0 1 0 -5.26 0z" fill="black"></path><path d="M280.87 661.5 a2.63 2.63 0 1 0 5.26 0 a2.63 2.63 0 1 0 -5.26 0zM343.87 703.5 a2.63 2.63 0 1 0 5.26 0 a2.63 2.63 0 1 0 -5.26 0zM196.87 682.5 a2.63 2.63 0 1 0 5.26 0 a2.63 2.63 0 1 0 -5.26 0zM259.87 661.5 a2.63 2.63 0 1 0 5.26 0 a2.63 2.63 0 1 0 -5.26 0z" fill="black"></path><path d="M112.87 430.5 a2.63 2.63 0 1 0 5.26 0 a2.63 2.63 0 1 0 -5.26 0z" fill="black"></path><path d="M133.87 682.5 a2.63 2.63 0 1 0 5.26 0 a2.63 2.63 0 1 0 -5.26 0zM112.87 682.5 a2.63 2.63 0 1 0 5.26 0 a2.63 2.63 0 1 0 -5.26 0z" fill="black"></path><path d="M196.87 430.5 a2.63 2.63 0 1 0 5.26 0 a2.63 2.63 0 1 0 -5.26 0zM175.87 409.5 a2.63 2.63 0 1 0 5.26 0 a2.63 2.63 0 1 0 -5.26 0z" fill="black"></path><path d="M28.87 661.5 a2.63 2.63 0 1 0 5.26 0 a2.63 2.63 0 1 0 -5.26 0z" fill="black"></path><path d="M133.87 367.5 a2.63 2.63 0 1 0 5.26 0 a2.63 2.63 0 1 0 -5.26 0zM154.87 388.5 a2.63 2.63 0 1 0 5.26 0 a2.63 2.63 0 1 0 -5.26 0z" fill="black"></path><path d="M49.87 682.5 a2.63 2.63 0 1 0 5.26 0 a2.63 2.63 0 1 0 -5.26 0z" fill="black"></path><path d="M28.87 388.5 a2.63 2.63 0 1 0 5.26 0 a2.63 2.63 0 1 0 -5.26 0z" fill="black"></path><path d="M175.87 703.5 a2.63 2.63 0 1 0 5.26 0 a2.63 2.63 0 1 0 -5.26 0zM154.87 724.5 a2.63 2.63 0 1 0 5.26 0 a2.63 2.63 0 1 0 -5.26 0zM91.87 724.5 a2.63 2.63 0 1 0 5.26 0 a2.63 2.63 0 1 0 -5.26 0zM133.87 724.5 a2.63 2.63 0 1 0 5.26 0 a2.63 2.63 0 1 0 -5.26 0z" fill="black"></path><path d="M343.87 346.5 a2.63 2.63 0 1 0 5.26 0 a2.63 2.63 0 1 0 -5.26 0zM364.87 367.5 a2.63 2.63 0 1 0 5.26 0 a2.63 2.63 0 1 0 -5.26 0zM91.87 346.5 a2.63 2.63 0 1 0 5.26 0 a2.63 2.63 0 1 0 -5.26 0zM49.87 346.5 a2.63 2.63 0 1 0 5.26 0 a2.63 2.63 0 1 0 -5.26 0zM238.87 367.5 a2.63 2.63 0 1 0 5.26 0 a2.63 2.63 0 1 0 -5.26 0z" fill="black"></path><path d="M217.87 745.5 a2.63 2.63 0 1 0 5.26 0 a2.63 2.63 0 1 0 -5.26 0zM259.87 724.5 a2.63 2.63 0 1 0 5.26 0 a2.63 2.63 0 1 0 -5.26 0zM133.87 766.5 a2.63 2.63 0 1 0 5.26 0 a2.63 2.63 0 1 0 -5.26 0zM196.87 766.5 a2.63 2.63 0 1 0 5.26 0 a2.63 2.63 0 1 0 -5.26 0z" fill="black"></path><path d="M28.87 745.5 a2.63 2.63 0 1 0 5.26 0 a2.63 2.63 0 1 0 -5.26 0z" fill="black"></path><path d="M196.87 325.5 a2.63 2.63 0 1 0 5.26 0 a2.63 2.63 0 1 0 -5.26 0z" fill="black"></path><path d="M49.87 766.5 a2.63 2.63 0 1 0 5.26 0 a2.63 2.63 0 1 0 -5.26 0z" fill="black"></path><path d="M238.87 325.5 a2.63 2.63 0 1 0 5.26 0 a2.63 2.63 0 1 0 -5.26 0z" fill="black"></path><path d="M154.87 787.5 a2.63 2.63 0 1 0 5.26 0 a2.63 2.63 0 1 0 -5.26 0zM112.87 808.5 a2.63 2.63 0 1 0 5.26 0 a2.63 2.63 0 1 0 -5.26 0zM154.87 808.5 a2.63 2.63 0 1 0 5.26 0 a2.63 2.63 0 1 0 -5.26 0zM112.87 766.5 a2.63 2.63 0 1 0 5.26 0 a2.63 2.63 0 1 0 -5.26 0z" fill="black"></path><path d="M385.87 325.5 a2.63 2.63 0 1 0 5.26 0 a2.63 2.63 0 1 0 -5.26 0zM28.87 262.5 a2.63 2.63 0 1 0 5.26 0 a2.63 2.63 0 1 0 -5.26 0zM217.87 262.5 a2.63 2.63 0 1 0 5.26 0 a2.63 2.63 0 1 0 -5.26 0zM406.87 325.5 a2.63 2.63 0 1 0 5.26 0 a2.63 2.63 0 1 0 -5.26 0zM364.87 283.5 a2.63 2.63 0 1 0 5.26 0 a2.63 2.63 0 1 0 -5.26 0zM385.87 241.5 a2.63 2.63 0 1 0 5.26 0 a2.63 2.63 0 1 0 -5.26 0z" fill="black"></path></mask></defs></svg>